<svg width="25" height="24" viewBox="0 0 25 24" fill="none" xmlns="http://www.w3.org/2000/svg">
<path fill-rule="evenodd" clip-rule="evenodd" d="M12.6665 17C11.5619 17 10.6665 17.8954 10.6665 19C10.6665 20.1046 11.5619 21 12.6665 21C13.7711 21 14.6665 20.1046 14.6665 19C14.6665 17.8954 13.7711 17 12.6665 17Z" fill="white"/>
<path fill-rule="evenodd" clip-rule="evenodd" d="M12.6665 10C11.5619 10 10.6665 10.8954 10.6665 12C10.6665 13.1046 11.5619 14 12.6665 14C13.7711 14 14.6665 13.1046 14.6665 12C14.6665 10.8954 13.7711 10 12.6665 10Z" fill="white"/>
<path fill-rule="evenodd" clip-rule="evenodd" d="M12.6665 3C11.5619 3 10.6665 3.89543 10.6665 5C10.6665 6.10457 11.5619 7 12.6665 7C13.7711 7 14.6665 6.10457 14.6665 5C14.6665 3.89543 13.7711 3 12.6665 3Z" fill="white"/>
</svg>
