<svg width="24" height="24" viewBox="0 0 24 24" fill="none" xmlns="http://www.w3.org/2000/svg">
<path fill-rule="evenodd" clip-rule="evenodd" d="M11.9998 17C10.8952 17 9.99976 17.8954 9.99976 19C9.99976 20.1046 10.8952 21 11.9998 21C13.1043 21 13.9998 20.1046 13.9998 19C13.9998 17.8954 13.1043 17 11.9998 17Z" fill="white"/>
<path fill-rule="evenodd" clip-rule="evenodd" d="M11.9998 10C10.8952 10 9.99976 10.8954 9.99976 12C9.99976 13.1046 10.8952 14 11.9998 14C13.1043 14 13.9998 13.1046 13.9998 12C13.9998 10.8954 13.1043 10 11.9998 10Z" fill="white"/>
<path fill-rule="evenodd" clip-rule="evenodd" d="M11.9998 3C10.8952 3 9.99976 3.89543 9.99976 5C9.99976 6.10457 10.8952 7 11.9998 7C13.1043 7 13.9998 6.10457 13.9998 5C13.9998 3.89543 13.1043 3 11.9998 3Z" fill="white"/>
</svg>
