<svg width="24" height="24" viewBox="0 0 24 24" fill="none" xmlns="http://www.w3.org/2000/svg">
<path d="M20.9999 20.25H17.1899C19.1767 18.9982 20.6448 17.0711 21.3239 14.8232C22.0031 12.5752 21.8477 10.1576 20.8863 8.01513C19.925 5.87263 18.2223 4.14931 16.0916 3.1622C13.9608 2.17508 11.5452 1.99056 9.28927 2.64258C7.0333 3.2946 5.08863 4.73929 3.81299 6.71092C2.53736 8.68254 2.01655 11.0485 2.34638 13.3735C2.67622 15.6985 3.8345 17.8263 5.60817 19.3653C7.38183 20.9044 9.65159 21.7512 11.9999 21.75H20.9999C21.1988 21.75 21.3896 21.671 21.5302 21.5304C21.6709 21.3897 21.7499 21.1989 21.7499 21C21.7499 20.8011 21.6709 20.6104 21.5302 20.4697C21.3896 20.329 21.1988 20.25 20.9999 20.25ZM3.74989 12C3.74989 10.3683 4.23375 8.77328 5.14027 7.41658C6.04679 6.05987 7.33526 5.00245 8.84275 4.37802C10.3502 3.7536 12.009 3.59022 13.6094 3.90855C15.2097 4.22688 16.6797 5.01262 17.8335 6.1664C18.9873 7.32018 19.773 8.79019 20.0914 10.3905C20.4097 11.9909 20.2463 13.6497 19.6219 15.1572C18.9975 16.6647 17.9401 17.9531 16.5833 18.8597C15.2266 19.7662 13.6316 20.25 11.9999 20.25C9.81262 20.2475 7.71564 19.3776 6.169 17.8309C4.62236 16.2843 3.75237 14.1873 3.74989 12ZM11.9999 9.75003C12.4449 9.75003 12.8799 9.61807 13.2499 9.37084C13.6199 9.1236 13.9083 8.7722 14.0786 8.36107C14.2489 7.94993 14.2935 7.49753 14.2067 7.06108C14.1198 6.62462 13.9056 6.22371 13.5909 5.90904C13.2762 5.59437 12.8753 5.38008 12.4388 5.29326C12.0024 5.20645 11.55 5.251 11.1389 5.4213C10.7277 5.5916 10.3763 5.87999 10.1291 6.25C9.88185 6.62001 9.74989 7.05502 9.74989 7.50003C9.74989 8.09677 9.98695 8.66906 10.4089 9.09102C10.8309 9.51298 11.4032 9.75003 11.9999 9.75003ZM11.9999 6.75003C12.1482 6.75003 12.2932 6.79402 12.4166 6.87643C12.5399 6.95884 12.636 7.07597 12.6928 7.21302C12.7496 7.35006 12.7644 7.50086 12.7355 7.64635C12.7065 7.79183 12.6351 7.92547 12.5302 8.03036C12.4253 8.13525 12.2917 8.20668 12.1462 8.23562C12.0007 8.26456 11.8499 8.24971 11.7129 8.19294C11.5758 8.13617 11.4587 8.04004 11.3763 7.91671C11.2939 7.79337 11.2499 7.64837 11.2499 7.50003C11.2499 7.30112 11.3289 7.11035 11.4696 6.9697C11.6102 6.82905 11.801 6.75003 11.9999 6.75003ZM14.2499 16.5C14.2499 16.055 14.1179 15.62 13.8707 15.25C13.6235 14.88 13.2721 14.5916 12.8609 14.4213C12.4498 14.251 11.9974 14.2064 11.5609 14.2933C11.1245 14.3801 10.7236 14.5944 10.4089 14.909C10.0942 15.2237 9.87994 15.6246 9.79313 16.0611C9.70631 16.4975 9.75087 16.9499 9.92116 17.3611C10.0915 17.7722 10.3798 18.1236 10.7499 18.3708C11.1199 18.6181 11.5549 18.75 11.9999 18.75C12.5966 18.75 13.1689 18.513 13.5909 18.091C14.0128 17.6691 14.2499 17.0968 14.2499 16.5ZM11.2499 16.5C11.2499 16.3517 11.2939 16.2067 11.3763 16.0834C11.4587 15.96 11.5758 15.8639 11.7129 15.8071C11.8499 15.7504 12.0007 15.7355 12.1462 15.7644C12.2917 15.7934 12.4253 15.8648 12.5302 15.9697C12.6351 16.0746 12.7065 16.2082 12.7355 16.3537C12.7644 16.4992 12.7496 16.65 12.6928 16.787C12.636 16.9241 12.5399 17.0412 12.4166 17.1236C12.2932 17.206 12.1482 17.25 11.9999 17.25C11.801 17.25 11.6102 17.171 11.4696 17.0304C11.3289 16.8897 11.2499 16.6989 11.2499 16.5ZM16.4999 14.25C16.9449 14.25 17.3799 14.1181 17.7499 13.8708C18.1199 13.6236 18.4083 13.2722 18.5786 12.8611C18.7489 12.4499 18.7935 11.9975 18.7067 11.5611C18.6198 11.1246 18.4056 10.7237 18.0909 10.409C17.7762 10.0944 17.3753 9.88008 16.9388 9.79326C16.5024 9.70645 16.05 9.751 15.6389 9.9213C15.2277 10.0916 14.8763 10.38 14.6291 10.75C14.3819 11.12 14.2499 11.555 14.2499 12C14.2499 12.5968 14.4869 13.1691 14.9089 13.591C15.3309 14.013 15.9032 14.25 16.4999 14.25ZM16.4999 11.25C16.6482 11.25 16.7932 11.294 16.9166 11.3764C17.0399 11.4588 17.136 11.576 17.1928 11.713C17.2496 11.8501 17.2644 12.0009 17.2355 12.1463C17.2065 12.2918 17.1351 12.4255 17.0302 12.5304C16.9253 12.6352 16.7917 12.7067 16.6462 12.7356C16.5007 12.7646 16.3499 12.7497 16.2129 12.6929C16.0758 12.6362 15.9587 12.54 15.8763 12.4167C15.7939 12.2934 15.7499 12.1484 15.7499 12C15.7499 11.8011 15.8289 11.6104 15.9696 11.4697C16.1102 11.329 16.301 11.25 16.4999 11.25ZM7.49989 9.75003C7.05488 9.75003 6.61987 9.88199 6.24986 10.1292C5.87985 10.3765 5.59146 10.7279 5.42116 11.139C5.25087 11.5501 5.20631 12.0025 5.29313 12.439C5.37994 12.8754 5.59423 13.2764 5.9089 13.591C6.22357 13.9057 6.62448 14.12 7.06094 14.2068C7.4974 14.2936 7.9498 14.2491 8.36093 14.0788C8.77206 13.9085 9.12347 13.6201 9.3707 13.2501C9.61793 12.8801 9.74989 12.445 9.74989 12C9.74989 11.4033 9.51284 10.831 9.09088 10.409C8.66893 9.98708 8.09663 9.75003 7.49989 9.75003ZM7.49989 12.75C7.35156 12.75 7.20655 12.706 7.08321 12.6236C6.95988 12.5412 6.86375 12.4241 6.80698 12.287C6.75022 12.15 6.73536 11.9992 6.7643 11.8537C6.79324 11.7082 6.86467 11.5746 6.96956 11.4697C7.07445 11.3648 7.20809 11.2934 7.35357 11.2644C7.49906 11.2355 7.64986 11.2504 7.78691 11.3071C7.92395 11.3639 8.04108 11.46 8.12349 11.5834C8.20591 11.7067 8.24989 11.8517 8.24989 12C8.24989 12.1989 8.17087 12.3897 8.03022 12.5304C7.88957 12.671 7.6988 12.75 7.49989 12.75Z" fill="white"/>
</svg>
