<svg width="25" height="24" viewBox="0 0 25 24" fill="none" xmlns="http://www.w3.org/2000/svg">
<path d="M21.6664 20.25H17.8564C19.8433 18.9982 21.3113 17.0711 21.9904 14.8232C22.6696 12.5752 22.5142 10.1576 21.5528 8.0151C20.5915 5.8726 18.8888 4.14928 16.7581 3.16217C14.6273 2.17505 12.2117 1.99053 9.95577 2.64255C7.6998 3.29456 5.75513 4.73926 4.4795 6.71089C3.20386 8.68251 2.68306 11.0484 3.01289 13.3735C3.34272 15.6985 4.50101 17.8262 6.27467 19.3653C8.04834 20.9043 10.3181 21.7512 12.6664 21.75H21.6664C21.8653 21.75 22.0561 21.671 22.1967 21.5303C22.3374 21.3897 22.4164 21.1989 22.4164 21C22.4164 20.8011 22.3374 20.6103 22.1967 20.4697C22.0561 20.329 21.8653 20.25 21.6664 20.25ZM4.4164 12C4.4164 10.3683 4.90025 8.77325 5.80677 7.41654C6.71329 6.05984 8.00177 5.00242 9.50926 4.37799C11.0167 3.75357 12.6755 3.59019 14.2759 3.90852C15.8762 4.22685 17.3462 5.01259 18.5 6.16637C19.6538 7.32015 20.4395 8.79016 20.7579 10.3905C21.0762 11.9908 20.9128 13.6496 20.2884 15.1571C19.664 16.6646 18.6066 17.9531 17.2499 18.8596C15.8931 19.7661 14.2981 20.25 12.6664 20.25C10.4791 20.2475 8.38214 19.3775 6.83551 17.8309C5.28887 16.2843 4.41888 14.1873 4.4164 12ZM12.6664 9.75C13.1114 9.75 13.5464 9.61804 13.9164 9.37081C14.2864 9.12357 14.5748 8.77217 14.7451 8.36104C14.9154 7.9499 14.96 7.4975 14.8732 7.06105C14.7863 6.62459 14.5721 6.22368 14.2574 5.90901C13.9427 5.59434 13.5418 5.38005 13.1054 5.29323C12.6689 5.20642 12.2165 5.25097 11.8054 5.42127C11.3942 5.59157 11.0428 5.87996 10.7956 6.24997C10.5484 6.61998 10.4164 7.05499 10.4164 7.5C10.4164 8.09674 10.6534 8.66903 11.0754 9.09099C11.4974 9.51295 12.0697 9.75 12.6664 9.75ZM12.6664 6.75C12.8147 6.75 12.9597 6.79399 13.0831 6.8764C13.2064 6.95881 13.3025 7.07594 13.3593 7.21299C13.4161 7.35003 13.4309 7.50083 13.402 7.64632C13.373 7.7918 13.3016 7.92544 13.1967 8.03033C13.0918 8.13522 12.9582 8.20665 12.8127 8.23559C12.6672 8.26453 12.5164 8.24967 12.3794 8.19291C12.2423 8.13614 12.1252 8.04001 12.0428 7.91668C11.9604 7.79334 11.9164 7.64834 11.9164 7.5C11.9164 7.30109 11.9954 7.11032 12.1361 6.96967C12.2767 6.82902 12.4675 6.75 12.6664 6.75ZM14.9164 16.5C14.9164 16.055 14.7844 15.62 14.5372 15.25C14.29 14.88 13.9386 14.5916 13.5274 14.4213C13.1163 14.251 12.6639 14.2064 12.2274 14.2932C11.791 14.38 11.3901 14.5943 11.0754 14.909C10.7607 15.2237 10.5464 15.6246 10.4596 16.061C10.3728 16.4975 10.4174 16.9499 10.5877 17.361C10.758 17.7722 11.0464 18.1236 11.4164 18.3708C11.7864 18.618 12.2214 18.75 12.6664 18.75C13.2631 18.75 13.8354 18.5129 14.2574 18.091C14.6793 17.669 14.9164 17.0967 14.9164 16.5ZM11.9164 16.5C11.9164 16.3517 11.9604 16.2067 12.0428 16.0833C12.1252 15.96 12.2423 15.8639 12.3794 15.8071C12.5164 15.7503 12.6672 15.7355 12.8127 15.7644C12.9582 15.7933 13.0918 15.8648 13.1967 15.9697C13.3016 16.0746 13.373 16.2082 13.402 16.3537C13.4309 16.4992 13.4161 16.65 13.3593 16.787C13.3025 16.9241 13.2064 17.0412 13.0831 17.1236C12.9597 17.206 12.8147 17.25 12.6664 17.25C12.4675 17.25 12.2767 17.171 12.1361 17.0303C11.9954 16.8897 11.9164 16.6989 11.9164 16.5ZM17.1664 14.25C17.6114 14.25 18.0464 14.118 18.4164 13.8708C18.7864 13.6236 19.0748 13.2722 19.2451 12.861C19.4154 12.4499 19.46 11.9975 19.3732 11.561C19.2863 11.1246 19.0721 10.7237 18.7574 10.409C18.4427 10.0943 18.0418 9.88005 17.6054 9.79323C17.1689 9.70642 16.7165 9.75097 16.3054 9.92127C15.8942 10.0916 15.5428 10.38 15.2956 10.75C15.0484 11.12 14.9164 11.555 14.9164 12C14.9164 12.5967 15.1535 13.169 15.5754 13.591C15.9974 14.0129 16.5697 14.25 17.1664 14.25ZM17.1664 11.25C17.3147 11.25 17.4597 11.294 17.5831 11.3764C17.7064 11.4588 17.8025 11.5759 17.8593 11.713C17.9161 11.85 17.9309 12.0008 17.902 12.1463C17.873 12.2918 17.8016 12.4254 17.6967 12.5303C17.5918 12.6352 17.4582 12.7066 17.3127 12.7356C17.1672 12.7645 17.0164 12.7497 16.8794 12.6929C16.7423 12.6361 16.6252 12.54 16.5428 12.4167C16.4604 12.2933 16.4164 12.1483 16.4164 12C16.4164 11.8011 16.4954 11.6103 16.6361 11.4697C16.7767 11.329 16.9675 11.25 17.1664 11.25ZM8.1664 9.75C7.72139 9.75 7.28637 9.88196 6.91636 10.1292C6.54635 10.3764 6.25796 10.7278 6.08767 11.139C5.91737 11.5501 5.87281 12.0025 5.95963 12.439C6.04645 12.8754 6.26074 13.2763 6.57541 13.591C6.89007 13.9057 7.29099 14.1199 7.72744 14.2068C8.1639 14.2936 8.6163 14.249 9.02743 14.0787C9.43857 13.9084 9.78997 13.62 10.0372 13.25C10.2844 12.88 10.4164 12.445 10.4164 12C10.4164 11.4033 10.1793 10.831 9.75739 10.409C9.33543 9.98705 8.76313 9.75 8.1664 9.75ZM8.1664 12.75C8.01806 12.75 7.87306 12.706 7.74972 12.6236C7.62638 12.5412 7.53025 12.4241 7.47349 12.287C7.41672 12.15 7.40187 11.9992 7.43081 11.8537C7.45975 11.7082 7.53118 11.5746 7.63607 11.4697C7.74096 11.3648 7.87459 11.2933 8.02008 11.2644C8.16556 11.2355 8.31636 11.2503 8.45341 11.3071C8.59045 11.3639 8.70759 11.46 8.79 11.5833C8.87241 11.7067 8.9164 11.8517 8.9164 12C8.9164 12.1989 8.83738 12.3897 8.69673 12.5303C8.55607 12.671 8.36531 12.75 8.1664 12.75Z" fill="white"/>
</svg>
