<svg width="25" height="24" viewBox="0 0 25 24" fill="none" xmlns="http://www.w3.org/2000/svg">
<path d="M21.6664 20.25H17.8564C19.8433 18.9982 21.3113 17.0711 21.9904 14.8232C22.6696 12.5752 22.5142 10.1576 21.5528 8.01513C20.5915 5.87263 18.8888 4.14931 16.7581 3.1622C14.6273 2.17508 12.2117 1.99056 9.95577 2.64258C7.6998 3.2946 5.75513 4.73929 4.4795 6.71092C3.20386 8.68254 2.68306 11.0485 3.01289 13.3735C3.34272 15.6985 4.50101 17.8263 6.27467 19.3653C8.04834 20.9044 10.3181 21.7512 12.6664 21.75H21.6664C21.8653 21.75 22.0561 21.671 22.1967 21.5304C22.3374 21.3897 22.4164 21.1989 22.4164 21C22.4164 20.8011 22.3374 20.6104 22.1967 20.4697C22.0561 20.329 21.8653 20.25 21.6664 20.25ZM4.4164 12C4.4164 10.3683 4.90025 8.77328 5.80677 7.41658C6.71329 6.05987 8.00177 5.00245 9.50926 4.37802C11.0167 3.7536 12.6755 3.59022 14.2759 3.90855C15.8762 4.22688 17.3462 5.01262 18.5 6.1664C19.6538 7.32018 20.4395 8.79019 20.7579 10.3905C21.0762 11.9909 20.9128 13.6497 20.2884 15.1572C19.664 16.6647 18.6066 17.9531 17.2499 18.8597C15.8931 19.7662 14.2981 20.25 12.6664 20.25C10.4791 20.2475 8.38214 19.3776 6.83551 17.8309C5.28887 16.2843 4.41888 14.1873 4.4164 12ZM12.6664 9.75003C13.1114 9.75003 13.5464 9.61807 13.9164 9.37084C14.2864 9.1236 14.5748 8.7722 14.7451 8.36107C14.9154 7.94993 14.96 7.49753 14.8732 7.06108C14.7863 6.62462 14.5721 6.22371 14.2574 5.90904C13.9427 5.59437 13.5418 5.38008 13.1054 5.29326C12.6689 5.20645 12.2165 5.251 11.8054 5.4213C11.3942 5.5916 11.0428 5.87999 10.7956 6.25C10.5484 6.62001 10.4164 7.05502 10.4164 7.50003C10.4164 8.09677 10.6534 8.66906 11.0754 9.09102C11.4974 9.51298 12.0697 9.75003 12.6664 9.75003ZM12.6664 6.75003C12.8147 6.75003 12.9597 6.79402 13.0831 6.87643C13.2064 6.95884 13.3025 7.07597 13.3593 7.21302C13.4161 7.35006 13.4309 7.50086 13.402 7.64635C13.373 7.79183 13.3016 7.92547 13.1967 8.03036C13.0918 8.13525 12.9582 8.20668 12.8127 8.23562C12.6672 8.26456 12.5164 8.24971 12.3794 8.19294C12.2423 8.13617 12.1252 8.04004 12.0428 7.91671C11.9604 7.79337 11.9164 7.64837 11.9164 7.50003C11.9164 7.30112 11.9954 7.11035 12.1361 6.9697C12.2767 6.82905 12.4675 6.75003 12.6664 6.75003ZM14.9164 16.5C14.9164 16.055 14.7844 15.62 14.5372 15.25C14.29 14.88 13.9386 14.5916 13.5274 14.4213C13.1163 14.251 12.6639 14.2064 12.2274 14.2933C11.791 14.3801 11.3901 14.5944 11.0754 14.909C10.7607 15.2237 10.5464 15.6246 10.4596 16.0611C10.3728 16.4975 10.4174 16.9499 10.5877 17.3611C10.758 17.7722 11.0464 18.1236 11.4164 18.3708C11.7864 18.6181 12.2214 18.75 12.6664 18.75C13.2631 18.75 13.8354 18.513 14.2574 18.091C14.6793 17.6691 14.9164 17.0968 14.9164 16.5ZM11.9164 16.5C11.9164 16.3517 11.9604 16.2067 12.0428 16.0834C12.1252 15.96 12.2423 15.8639 12.3794 15.8071C12.5164 15.7504 12.6672 15.7355 12.8127 15.7644C12.9582 15.7934 13.0918 15.8648 13.1967 15.9697C13.3016 16.0746 13.373 16.2082 13.402 16.3537C13.4309 16.4992 13.4161 16.65 13.3593 16.787C13.3025 16.9241 13.2064 17.0412 13.0831 17.1236C12.9597 17.206 12.8147 17.25 12.6664 17.25C12.4675 17.25 12.2767 17.171 12.1361 17.0304C11.9954 16.8897 11.9164 16.6989 11.9164 16.5ZM17.1664 14.25C17.6114 14.25 18.0464 14.1181 18.4164 13.8708C18.7864 13.6236 19.0748 13.2722 19.2451 12.8611C19.4154 12.4499 19.46 11.9975 19.3732 11.5611C19.2863 11.1246 19.0721 10.7237 18.7574 10.409C18.4427 10.0944 18.0418 9.88008 17.6054 9.79326C17.1689 9.70645 16.7165 9.751 16.3054 9.9213C15.8942 10.0916 15.5428 10.38 15.2956 10.75C15.0484 11.12 14.9164 11.555 14.9164 12C14.9164 12.5968 15.1535 13.1691 15.5754 13.591C15.9974 14.013 16.5697 14.25 17.1664 14.25ZM17.1664 11.25C17.3147 11.25 17.4597 11.294 17.5831 11.3764C17.7064 11.4588 17.8025 11.576 17.8593 11.713C17.9161 11.8501 17.9309 12.0009 17.902 12.1463C17.873 12.2918 17.8016 12.4255 17.6967 12.5304C17.5918 12.6352 17.4582 12.7067 17.3127 12.7356C17.1672 12.7646 17.0164 12.7497 16.8794 12.6929C16.7423 12.6362 16.6252 12.54 16.5428 12.4167C16.4604 12.2934 16.4164 12.1484 16.4164 12C16.4164 11.8011 16.4954 11.6104 16.6361 11.4697C16.7767 11.329 16.9675 11.25 17.1664 11.25ZM8.1664 9.75003C7.72139 9.75003 7.28637 9.88199 6.91636 10.1292C6.54635 10.3765 6.25796 10.7279 6.08767 11.139C5.91737 11.5501 5.87281 12.0025 5.95963 12.439C6.04645 12.8754 6.26074 13.2764 6.57541 13.591C6.89007 13.9057 7.29099 14.12 7.72744 14.2068C8.1639 14.2936 8.6163 14.2491 9.02743 14.0788C9.43857 13.9085 9.78997 13.6201 10.0372 13.2501C10.2844 12.8801 10.4164 12.445 10.4164 12C10.4164 11.4033 10.1793 10.831 9.75739 10.409C9.33543 9.98708 8.76313 9.75003 8.1664 9.75003ZM8.1664 12.75C8.01806 12.75 7.87306 12.706 7.74972 12.6236C7.62638 12.5412 7.53025 12.4241 7.47349 12.287C7.41672 12.15 7.40187 11.9992 7.43081 11.8537C7.45975 11.7082 7.53118 11.5746 7.63607 11.4697C7.74096 11.3648 7.87459 11.2934 8.02008 11.2644C8.16556 11.2355 8.31636 11.2504 8.45341 11.3071C8.59045 11.3639 8.70759 11.46 8.79 11.5834C8.87241 11.7067 8.9164 11.8517 8.9164 12C8.9164 12.1989 8.83738 12.3897 8.69673 12.5304C8.55607 12.671 8.36531 12.75 8.1664 12.75Z" fill="white"/>
</svg>
