<svg width="25" height="24" viewBox="0 0 25 24" fill="none" xmlns="http://www.w3.org/2000/svg">
<path d="M21.3331 20.25H17.5231C19.51 18.9982 20.978 17.0711 21.6572 14.8232C22.3363 12.5752 22.181 10.1576 21.2196 8.0151C20.2582 5.8726 18.5556 4.14928 16.4248 3.16217C14.294 2.17505 11.8785 1.99053 9.62252 2.64255C7.36655 3.29456 5.42188 4.73926 4.14624 6.71089C2.87061 8.68251 2.3498 11.0484 2.67964 13.3735C3.00947 15.6985 4.16776 17.8262 5.94142 19.3653C7.71509 20.9043 9.98484 21.7512 12.3331 21.75H21.3331C21.5321 21.75 21.7228 21.671 21.8635 21.5303C22.0041 21.3897 22.0831 21.1989 22.0831 21C22.0831 20.8011 22.0041 20.6103 21.8635 20.4697C21.7228 20.329 21.5321 20.25 21.3331 20.25ZM4.08314 12C4.08314 10.3683 4.567 8.77325 5.47352 7.41654C6.38004 6.05984 7.66852 5.00242 9.17601 4.37799C10.6835 3.75357 12.3423 3.59019 13.9426 3.90852C15.543 4.22685 17.013 5.01259 18.1668 6.16637C19.3206 7.32015 20.1063 8.79016 20.4246 10.3905C20.743 11.9908 20.5796 13.6496 19.9552 15.1571C19.3307 16.6646 18.2733 17.9531 16.9166 18.8596C15.5599 19.7661 13.9648 20.25 12.3331 20.25C10.1459 20.2475 8.04889 19.3775 6.50225 17.8309C4.95562 16.2843 4.08563 14.1873 4.08314 12ZM12.3331 9.75C12.7782 9.75 13.2132 9.61804 13.5832 9.37081C13.9532 9.12357 14.2416 8.77217 14.4119 8.36104C14.5822 7.9499 14.6267 7.4975 14.5399 7.06105C14.4531 6.62459 14.2388 6.22368 13.9241 5.90901C13.6095 5.59434 13.2086 5.38005 12.7721 5.29323C12.3356 5.20642 11.8832 5.25097 11.4721 5.42127C11.061 5.59157 10.7096 5.87996 10.4623 6.24997C10.2151 6.61998 10.0831 7.05499 10.0831 7.5C10.0831 8.09674 10.3202 8.66903 10.7422 9.09099C11.1641 9.51295 11.7364 9.75 12.3331 9.75ZM12.3331 6.75C12.4815 6.75 12.6265 6.79399 12.7498 6.8764C12.8732 6.95881 12.9693 7.07594 13.0261 7.21299C13.0828 7.35003 13.0977 7.50083 13.0687 7.64632C13.0398 7.7918 12.9684 7.92544 12.8635 8.03033C12.7586 8.13522 12.6249 8.20665 12.4795 8.23559C12.334 8.26453 12.1832 8.24967 12.0461 8.19291C11.9091 8.13614 11.792 8.04001 11.7095 7.91668C11.6271 7.79334 11.5831 7.64834 11.5831 7.5C11.5831 7.30109 11.6622 7.11032 11.8028 6.96967C11.9435 6.82902 12.1342 6.75 12.3331 6.75ZM14.5831 16.5C14.5831 16.055 14.4512 15.62 14.204 15.25C13.9567 14.88 13.6053 14.5916 13.1942 14.4213C12.783 14.251 12.3306 14.2064 11.8942 14.2932C11.4577 14.38 11.0568 14.5943 10.7422 14.909C10.4275 15.2237 10.2132 15.6246 10.1264 16.061C10.0396 16.4975 10.0841 16.9499 10.2544 17.361C10.4247 17.7722 10.7131 18.1236 11.0831 18.3708C11.4531 18.618 11.8881 18.75 12.3331 18.75C12.9299 18.75 13.5022 18.5129 13.9241 18.091C14.3461 17.669 14.5831 17.0967 14.5831 16.5ZM11.5831 16.5C11.5831 16.3517 11.6271 16.2067 11.7095 16.0833C11.792 15.96 11.9091 15.8639 12.0461 15.8071C12.1832 15.7503 12.334 15.7355 12.4795 15.7644C12.6249 15.7933 12.7586 15.8648 12.8635 15.9697C12.9684 16.0746 13.0398 16.2082 13.0687 16.3537C13.0977 16.4992 13.0828 16.65 13.0261 16.787C12.9693 16.9241 12.8732 17.0412 12.7498 17.1236C12.6265 17.206 12.4815 17.25 12.3331 17.25C12.1342 17.25 11.9435 17.171 11.8028 17.0303C11.6622 16.8897 11.5831 16.6989 11.5831 16.5ZM16.8331 14.25C17.2782 14.25 17.7132 14.118 18.0832 13.8708C18.4532 13.6236 18.7416 13.2722 18.9119 12.861C19.0822 12.4499 19.1267 11.9975 19.0399 11.561C18.9531 11.1246 18.7388 10.7237 18.4241 10.409C18.1095 10.0943 17.7086 9.88005 17.2721 9.79323C16.8356 9.70642 16.3832 9.75097 15.9721 9.92127C15.561 10.0916 15.2096 10.38 14.9623 10.75C14.7151 11.12 14.5831 11.555 14.5831 12C14.5831 12.5967 14.8202 13.169 15.2422 13.591C15.6641 14.0129 16.2364 14.25 16.8331 14.25ZM16.8331 11.25C16.9815 11.25 17.1265 11.294 17.2498 11.3764C17.3732 11.4588 17.4693 11.5759 17.5261 11.713C17.5828 11.85 17.5977 12.0008 17.5687 12.1463C17.5398 12.2918 17.4684 12.4254 17.3635 12.5303C17.2586 12.6352 17.1249 12.7066 16.9795 12.7356C16.834 12.7645 16.6832 12.7497 16.5461 12.6929C16.4091 12.6361 16.292 12.54 16.2095 12.4167C16.1271 12.2933 16.0831 12.1483 16.0831 12C16.0831 11.8011 16.1622 11.6103 16.3028 11.4697C16.4435 11.329 16.6342 11.25 16.8331 11.25ZM7.83314 9.75C7.38814 9.75 6.95312 9.88196 6.58311 10.1292C6.2131 10.3764 5.92471 10.7278 5.75442 11.139C5.58412 11.5501 5.53956 12.0025 5.62638 12.439C5.71319 12.8754 5.92749 13.2763 6.24215 13.591C6.55682 13.9057 6.95773 14.1199 7.39419 14.2068C7.83065 14.2936 8.28305 14.249 8.69418 14.0787C9.10532 13.9084 9.45672 13.62 9.70395 13.25C9.95118 12.88 10.0831 12.445 10.0831 12C10.0831 11.4033 9.84609 10.831 9.42414 10.409C9.00218 9.98705 8.42988 9.75 7.83314 9.75ZM7.83314 12.75C7.68481 12.75 7.5398 12.706 7.41647 12.6236C7.29313 12.5412 7.197 12.4241 7.14023 12.287C7.08347 12.15 7.06862 11.9992 7.09756 11.8537C7.12649 11.7082 7.19793 11.5746 7.30281 11.4697C7.4077 11.3648 7.54134 11.2933 7.68683 11.2644C7.83231 11.2355 7.98311 11.2503 8.12016 11.3071C8.2572 11.3639 8.37434 11.46 8.45675 11.5833C8.53916 11.7067 8.58314 11.8517 8.58314 12C8.58314 12.1989 8.50413 12.3897 8.36347 12.5303C8.22282 12.671 8.03206 12.75 7.83314 12.75Z" fill="white"/>
</svg>
